<svg xmlns="http://www.w3.org/2000/svg" viewBox="0 0 16 16"><style>.icon-canvas-transparent{opacity:0;fill:#f6f6f6}.icon-vs-out{fill:#f6f6f6}.icon-vs-bg{fill:#424242}.icon-vs-fg{fill:#f0eff1}</style><path id="canvas" d="M16 16H0V0h16v16z" class="icon-canvas-transparent"/><path id="outline" d="M15 11.5A4.5 4.5 0 0 1 6.76 14H2c-.97 0-2-.701-2-2V2C0 .701 1.03 0 2 0h6.061L12 3.556v3.719c1.744.62 3 2.268 3 4.225z" class="icon-vs-out" style="display:none"/><path id="iconFg" d="M13 12H8v-1h5v1zm-7-.5c0-2.315 1.753-4.198 4-4.45V5H7V2H2v10h4.05c-.018-.166-.05-.329-.05-.5z" class="icon-vs-fg" style="display:none"/><g id="iconBg"><path d="M6.275 13H1.964S1 13 1 12V2c0-1 .964-1 .964-1h5.677L11 4v3.05c-.166-.019-.329-.05-.5-.05s-.334.031-.5.05V5H7V2H2v10h4.05c.039.347.112.682.225 1zM10.5 8a3.5 3.5 0 1 0 0 7 3.5 3.5 0 0 0 0-7zM8 12v-1h5v1H8z" class="icon-vs-bg"/></g></svg>