<svg xmlns="http://www.w3.org/2000/svg" width="32" height="32" viewBox="0 0 32 32"><style type="text/css">.icon-canvas-transparent{opacity:0;fill:#f6f6f6}.icon-vs-out{fill:#f6f6f6}.icon-vs-bg{fill:#424242}.icon-vs-fg{fill:#f0eff1}</style><path id="canvas" d="M32 32h-32v-32h32v32z" class="icon-canvas-transparent"/><path id="outline" d="M32 28h-32v-24h32v24z" class="icon-vs-out"/><path id="iconBg" d="M2 6v20h28v-20h-28zm26 18h-24v-16h24v16zm-13-8l-5.25 5.5-1.75-1.833 3.5-3.667-3.5-3.667 1.75-1.833 5.25 5.5z" class="icon-vs-bg"/><g id="iconFg"><path d="M4 8v16h24v-16h-24zm5.75 13.5l-1.75-1.833 3.5-3.667-3.5-3.667 1.75-1.833 5.25 5.5-5.25 5.5z" class="icon-vs-fg"/></g></svg>