<svg xmlns="http://www.w3.org/2000/svg" width="16" height="16" viewBox="0 0 16 16"><style type="text/css">.icon-canvas-transparent{opacity:0;fill:#f6f6f6}.icon-vs-out{fill:#f6f6f6}.icon-vs-bg{fill:#424242}.icon-vs-action-blue{fill:#00539c}</style><path id="canvas" d="M16 16H0V0h16v16z" class="icon-canvas-transparent"/><g id="outline"><path d="M10 7.414l2 2V4.586l-4-4-4 4v4.828l2-2V10h4z" class="icon-vs-out"/><circle cx="8" cy="13" r="3" class="icon-vs-out"/></g><path id="iconBg" d="M8 11c1.104 0 2 .896 2 2s-.896 2-2 2-2-.896-2-2 .896-2 2-2z" class="icon-vs-bg"/><path id="colorAction" d="M11 5v2L9 5v4H7V5L5 7V5l3-3 3 3z" class="icon-vs-action-blue"/></svg>