<svg xmlns="http://www.w3.org/2000/svg" width="16" height="16" viewBox="0 0 16 16"><style type="text/css">.icon-canvas-transparent{opacity:0;fill:#f6f6f6}.icon-vs-out{fill:#f6f6f6}.icon-vs-bg{fill:#424242}.icon-vs-action-blue{fill:#00539c}</style><path id="canvas" d="M16 16H0V0h16v16z" class="icon-canvas-transparent"/><path id="outline" d="M11 13c0-1.526-1.15-2.775-2.624-2.962L12 6.414V1.586l-2 2V1H6v2.586l-2-2v4.828l3.624 3.624C6.15 10.225 5 11.474 5 13c0 1.654 1.346 3 3 3s3-1.346 3-3z" class="icon-vs-out"/><path id="iconBg" d="M8 11c1.104 0 2 .896 2 2s-.896 2-2 2-2-.896-2-2 .896-2 2-2z" class="icon-vs-bg"/><path id="colorAction" d="M8 9L5 6V4l2 2V2h2v4l2-2v2L8 9z" class="icon-vs-action-blue"/></svg>