<svg xmlns="http://www.w3.org/2000/svg" xmlns:xlink="http://www.w3.org/1999/xlink" id="图层_1" x="0" y="0" version="1.1" viewBox="0 0 360 720" xml:space="preserve" style="enable-background:new 0 0 360 720"><style type="text/css">.st0{opacity:.3}.st1{fill:#cad81f}.st2{fill:#314a7e}.st3{opacity:.8;fill:#cad81f}</style><switch><g><g class="st0"><path d="M128.7,271.9c7.9,64.8-22.5,136.8-84.7,175c-5.7,3.5-11.7,6.8-17.8,9.6L92,488.4 c-6.6-63.1,24.2-128.8,84.2-165.6c7-4.3,14.2-8.1,21.7-11.5L128.7,271.9z" class="st1"/><path d="M153.4,314.1c61.6,23.8,113.3,84.8,115.7,157.8c0.2,6.7,0.1,13.5-0.4,20.2l61.6-39.6 c-58.1-25.5-106.7-84.7-109-155.1c-0.3-8.2-0.6-16.4,0.2-24.6L153.4,314.1z" class="st1"/><path d="M74.5,533.2c54.1-37.9,131.7-55.3,193.6-16.6c5.7,3.6,11.3,7.5,16.6,11.6l0.9-72.3 c-53.6,34-127.2,48.9-186.9,11.6c-6.9-4.3-13.6-9.1-19.9-14.3L74.5,533.2z" class="st1"/><ellipse cx="175.2" cy="269.7" class="st2" rx="46.4" ry="46.4" transform="matrix(0.7096 -0.7046 0.7046 0.7096 -139.1507 201.7372)"/><ellipse cx="46.4" cy="498.3" class="st2" rx="46.4" ry="46.4" transform="matrix(0.7096 -0.7046 0.7046 0.7096 -337.6516 177.4445)"/><ellipse cx="313.6" cy="491.9" class="st2" rx="46.4" ry="46.4" transform="matrix(0.7096 -0.7046 0.7046 0.7096 -255.5669 363.8251)"/><path d="M84.3,391.1c27.4-5.5,59.8,4.6,77.3,30.1c1.6,2.4,3.1,4.8,4.5,7.3l13-28.2c-26.6,4.1-57.4-6-74.2-30.6 c-2-2.9-3.7-5.9-5.3-9L84.3,391.1z" class="st3"/><path d="M191.8,429.2c10.5-25.9,37.6-46,68.5-46.5c2.9,0,5.7,0.1,8.6,0.3l-16.3-26.4c-11.2,24.4-42.8,43-72.6,43.5 c-3.5,0.1-0.9,1.4-4.3,1L191.8,429.2z" class="st3"/><path d="M200,512.5c-17.8-21.6-24.1-54.9-9.8-82.4c1.3-2.5,2.8-5,4.4-7.4l-31,1.7c16.1,21.5,21.7,53.5,7.9,79.9 c-1.6,3.1-3.4,6-5.4,8.9L200,512.5z" class="st3"/><ellipse cx="72.1" cy="365.8" class="st2" rx="28.5" ry="28.5" transform="matrix(0.9634 -0.2679 0.2679 0.9634 -95.3728 32.6891)"/><ellipse cx="183.7" cy="531.4" class="st2" rx="26.1" ry="26.1" transform="matrix(0.9627 -0.2707 0.2707 0.9627 -137.007 69.5959)"/><ellipse cx="277.9" cy="359.1" class="st2" rx="25.4" ry="25.4" transform="matrix(0.9634 -0.2679 0.2679 0.9634 -86.0563 87.5862)"/><ellipse cx="179" cy="417.2" class="st2" rx="17.5" ry="17.5" transform="matrix(0.7096 -0.7046 0.7046 0.7096 -241.9895 247.3093)"/></g></g></switch></svg>