<svg xmlns="http://www.w3.org/2000/svg" xmlns:xlink="http://www.w3.org/1999/xlink" id="图层_1" x="0" y="0" version="1.1" viewBox="0 0 360 720" xml:space="preserve" style="enable-background:new 0 0 360 720"><style type="text/css">.st0{opacity:.3}.st1{fill:#cad81f}.st2{fill:#fff}.st3{opacity:.8;fill:#cad81f}</style><switch><g><g class="st0"><path d="M128.7,241.5c7.9,64.8-22.5,136.8-84.7,175c-5.7,3.5-11.7,6.8-17.8,9.6L92,458 c-6.6-63.1,24.2-128.8,84.2-165.6c7-4.3,14.2-8.1,21.7-11.5L128.7,241.5z" class="st1"/><path d="M153.4,283.8c61.6,23.8,113.3,84.8,115.7,157.8c0.2,6.7,0.1,13.5-0.4,20.2l61.6-39.6 c-58.1-25.5-106.7-84.7-109-155.1c-0.3-8.2-0.6-16.4,0.2-24.6L153.4,283.8z" class="st1"/><path d="M74.5,502.8c54.1-37.9,131.7-55.3,193.6-16.6c5.7,3.6,11.3,7.5,16.6,11.6l0.9-72.3 c-53.6,34-127.2,48.9-186.9,11.6c-6.9-4.3-13.6-9.1-19.9-14.3L74.5,502.8z" class="st1"/><ellipse cx="175.2" cy="239.3" class="st2" rx="46.4" ry="46.4" transform="matrix(0.7096 -0.7046 0.7046 0.7096 -117.7583 192.9199)"/><ellipse cx="46.4" cy="468" class="st2" rx="46.4" ry="46.4" transform="matrix(0.7096 -0.7046 0.7046 0.7096 -316.2592 168.6272)"/><ellipse cx="313.6" cy="461.6" class="st2" rx="46.4" ry="46.4" transform="matrix(0.7096 -0.7046 0.7046 0.7096 -234.1744 355.0078)"/><path d="M84.3,360.7c27.4-5.5,59.8,4.6,77.3,30.1c1.6,2.4,3.1,4.8,4.5,7.3l13-28.2c-26.6,4.1-57.4-6-74.2-30.6 c-2-2.9-3.7-5.9-5.3-9L84.3,360.7z" class="st3"/><path d="M191.8,398.8c10.5-25.9,37.6-46,68.5-46.5c2.9,0,5.7,0.1,8.6,0.3l-16.3-26.4c-11.2,24.4-42.8,43-72.6,43.5 c-3.5,0.1-0.9,1.4-4.3,1L191.8,398.8z" class="st3"/><path d="M200,482.1c-17.8-21.6-24.1-54.9-9.8-82.4c1.3-2.5,2.8-5,4.4-7.4l-31,1.7c16.1,21.5,21.7,53.5,7.9,79.9 c-1.6,3.1-3.4,6-5.4,8.9L200,482.1z" class="st3"/><ellipse cx="72.1" cy="335.5" class="st2" rx="28.5" ry="28.5" transform="matrix(0.9634 -0.2679 0.2679 0.9634 -87.2391 31.5792)"/><ellipse cx="183.7" cy="501" class="st2" rx="26.1" ry="26.1" transform="matrix(0.9627 -0.2707 0.2707 0.9627 -128.7872 68.462)"/><ellipse cx="277.9" cy="328.8" class="st2" rx="25.4" ry="25.4" transform="matrix(0.9634 -0.2679 0.2679 0.9634 -77.9226 86.4763)"/><ellipse cx="179" cy="386.9" class="st2" rx="17.5" ry="17.5" transform="matrix(0.7096 -0.7046 0.7046 0.7096 -220.597 238.4919)"/></g></g></switch></svg>