<svg xmlns="http://www.w3.org/2000/svg" xmlns:xlink="http://www.w3.org/1999/xlink" id="图层_1" x="0" y="0" version="1.1" viewBox="0 0 360 720" xml:space="preserve" style="enable-background:new 0 0 360 720"><style type="text/css">.st0{opacity:.3}.st1{opacity:.6}.st1,.st2{fill:#fff}</style><switch><g><g class="st0"><path d="M129.1,240.6c9.9,65.5-22.5,137-85,175.4c-5.8,3.6-11.8,6.8-17.8,9.7l66,31.9 c-6.6-63.3,24.3-129.2,84.4-166.1c7.1-4.4,14.1-9.1,21.5-12.4L129.1,240.6z" class="st1"/><path d="M154,279.7c61.8,23.8,113.4,88.1,115.9,161.3c0.2,6.9,0.1,13.6-0.4,20.3l63.1-40.9 c-58.3-25.6-108.3-83.7-110.6-154.3c-0.3-8.3-0.6-16.6,0.2-24.6L154,279.7z" class="st1"/><path d="M74.7,504.6c54.2-38,131.4-56.6,193.5-17.8c5.8,3.6,11.3,8.4,16.5,12.6l1.6-74.3 c-53.7,34.1-123.8,41.1-186.9,19.6c-7.9-2.7-21.3-10.7-27.5-15.9L74.7,504.6z" class="st1"/><ellipse cx="175.7" cy="238.2" class="st2" rx="46.6" ry="46.6" transform="matrix(0.7096 -0.7046 0.7046 0.7096 -116.812 192.9521)"/><ellipse cx="46.6" cy="467.5" class="st2" rx="46.6" ry="46.6" transform="matrix(0.7096 -0.7046 0.7046 0.7096 -315.8849 168.5723)"/><ellipse cx="313.4" cy="462.7" class="st2" rx="46.6" ry="46.6" transform="matrix(0.7096 -0.7046 0.7046 0.7096 -235.0029 355.2122)"/><g><path d="M84.6,359.9c27.5-5.5,60,4.6,77.5,30.2c1.6,2.4,3.1,4.9,4.5,7.4l13.1-28.2c-26.7,4.1-57.6-6-74.5-30.7 c-2-2.9-3.8-5.9-5.3-9L84.6,359.9z" class="st1"/><path d="M192.4,398.1c10.6-26,37.7-46.2,68.7-46.6c2.9,0,5.8,0.1,8.6,0.3l-16.4-26.5 c-11.3,24.5-42.9,43.1-72.8,43.6c-3.5,0.1-0.9,1.4-4.3,1L192.4,398.1z" class="st1"/><path d="M200.5,481.7c-17.8-21.7-24.2-55.1-9.8-82.6c1.3-2.6,2.8-5,4.4-7.4l-31.1,1.7c16.2,21.6,21.7,53.6,7.9,80.2 c-1.6,3.1-3.4,6.4-5.4,9.2L200.5,481.7z" class="st1"/><ellipse cx="72.3" cy="334.6" class="st2" rx="28.6" ry="28.6" transform="matrix(0.9635 -0.2678 0.2678 0.9635 -86.9848 31.5922)"/><ellipse cx="184.3" cy="502.1" class="st2" rx="26.2" ry="26.2" transform="matrix(0.9635 -0.2678 0.2678 0.9635 -127.7623 67.7006)"/><ellipse cx="278.7" cy="327.9" class="st2" rx="25.5" ry="25.5" transform="matrix(0.9635 -0.2678 0.2678 0.9635 -77.6507 86.6395)"/></g><ellipse cx="179.5" cy="386.2" class="st2" rx="17.5" ry="17.5" transform="matrix(0.7096 -0.7046 0.7046 0.7096 -219.9513 238.6426)"/></g></g></switch></svg>