<svg xmlns="http://www.w3.org/2000/svg" xmlns:xlink="http://www.w3.org/1999/xlink" id="图层_1" x="0" y="0" version="1.1" viewBox="0 0 16 16" xml:space="preserve" style="enable-background:new 0 0 16 16"><style type="text/css">.st0{fill:red}.st0,.st1{display:none}.st2{display:inline}.st3{fill:#c5c5c5}.st4{fill:none}.st5{fill:#2d2d30}</style><rect width="16" height="16" class="st0"/><g class="st1"><path d="M13.5,5.8v8.7h-12v-12h8.7L11.7,1h-11C0.4,0.9,0,1.2,0,1.7v13.5C0,15.6,0.4,16,0.8,16h13.5 c0.4,0,0.8-0.4,0.8-0.8v-11L13.5,5.8z" class="st2"/></g><path d="M14.1,0"/><path d="M14.2-0.1"/><path d="M15.4,1.6l-1-1c-0.3-0.3-0.8-0.3-1.1,0L11.9,2L14,4.1l1.3-1.3C15.6,2.5,15.6,2,15.4,1.6z" class="st3"/><rect width="6.3" height="3" x="7" y="4.4" class="st3" transform="matrix(0.7071 -0.7071 0.7071 0.7071 -1.1996 8.9283)"/><polygon points="8.2 9.9 6 7.8 5.3 10.7" class="st3"/><g class="st1"><path d="M24.9,3.5l-1-1c-0.3-0.3-0.8-0.3-1.1,0l-1.6,1.6l2.1,2.1l1.6-1.6C25.2,4.3,25.2,3.8,24.9,3.5z" class="st2"/><rect width="9.2" height="3" x="13.8" y="7.4" class="st2" transform="matrix(0.7071 -0.7071 0.7071 0.7071 -0.8892 15.5997)"/><polygon points="15.6 13.9 13.4 11.8 12.7 14.7" class="st2"/></g><polygon points="5 6.7 6.3 5.4 4.5 5.4 4.5 11.5 10.6 11.5 10.6 9.7 9.3 11" class="st4"/><path d="M11.6,12.5H3.5V4.4h3.8l2.5-2.5h-8C1.4,1.9,1,2.3,1,2.7v11.5C1,14.6,1.4,15,1.8,15h11.5c0.4,0,0.8-0.4,0.8-0.8	v-8l-2.5,2.5V12.5z" class="st3"/><path d="M14.1,4.7l-2.5,2.5l-1,1v1.5v1.8H4.5V5.4h1.8h1.5l1-1l2.5-2.5l1-1h-1.5h-10C0.4,0.9,0,1.3,0,1.7v13.5	C0,15.6,0.4,16,0.8,16h13.5c0.4,0,0.8-0.4,0.8-0.8v-10V3.7L14.1,4.7z M14.1,14.2c0,0.4-0.4,0.8-0.8,0.8H1.8C1.4,15,1,14.6,1,14.2	V2.7c0-0.4,0.4-0.8,0.8-0.8h8L7.3,4.4H3.5v8.1h8.1V8.7l2.5-2.5V14.2z" class="st5"/></svg>